<?xml version="1.0" encoding="utf-8"?>
<!-- Generator: Adobe Illustrator 22.1.0, SVG Export Plug-In . SVG Version: 6.00 Build 0)  -->
<svg version="1.1" id="Layer_1" xmlns="http://www.w3.org/2000/svg" xmlns:xlink="http://www.w3.org/1999/xlink" x="0px" y="0px"
	 viewBox="0 0 566 134" style="enable-background:new 0 0 566 134;" xml:space="preserve">
<g>
	<g>
		<path d="M187.2,93.5c-15.1,0-26.2-11.6-26.2-26.3V67c0-14.5,11-26.5,26.7-26.5c9.6,0,15.4,3.2,20.2,7.9l-7.2,8.3
			c-3.9-3.6-8-5.8-13.1-5.8c-8.6,0-14.8,7.2-14.8,15.9V67c0,8.8,6.1,16.1,14.8,16.1c5.8,0,9.4-2.3,13.5-6l7.2,7.2
			C202.9,90,197.1,93.5,187.2,93.5z"/>
		<path d="M269.9,92.6l-4.7-11.5h-21.6l-4.7,11.5h-11.5L249.3,41h10.4l21.9,51.5H269.9z M254.4,54.6l-6.8,16.6h13.6L254.4,54.6z"/>
		<path d="M324,77.2h-8.6v15.4h-11.3V41.4h20.9c12.2,0,19.6,7.2,19.6,17.7v0.1C344.7,71.1,335.4,77.2,324,77.2z M333.3,59.3
			c0-5-3.5-7.7-9.1-7.7h-8.7v15.6h8.9c5.6,0,8.9-3.4,8.9-7.7V59.3z"/>
		<path d="M391.6,93.5c-15.1,0-26.2-11.6-26.2-26.3V67c0-14.5,11-26.5,26.7-26.5c9.7,0,15.4,3.2,20.2,7.9l-7.2,8.3
			c-3.9-3.6-8-5.8-13.1-5.8c-8.6,0-14.8,7.2-14.8,15.9V67c0,8.8,6.1,16.1,14.8,16.1c5.8,0,9.4-2.3,13.5-6l7.2,7.2
			C407.3,90,401.5,93.5,391.6,93.5z"/>
		<path d="M459.6,93.5c-15.8,0-27.1-11.8-27.1-26.3V67c0-14.5,11.5-26.5,27.3-26.5s27.1,11.8,27.1,26.3V67
			C486.8,81.5,475.4,93.5,459.6,93.5z M475.1,67c0-8.8-6.4-16.1-15.5-16.1s-15.4,7.2-15.4,15.9V67c0,8.8,6.4,16.1,15.5,16.1
			c9.1,0,15.4-7.2,15.4-15.9V67z"/>
		<path d="M547.4,92.6l-24.8-32.5v32.5h-11.1V41.4h10.4l24,31.5V41.4H557v51.2H547.4z"/>
	</g>
	<path d="M94.1,83.9l-5.1,4.5c-5.3,4.7-12,7.3-19.1,7.3c-15.8,0-28.7-12.9-28.7-28.7S54.2,38.3,70,38.3c6.9,0,13.6,2.5,18.9,7.1
		l5,4.4l22.7-22.7l-5.5-5.1C99.8,11.7,85.2,6.1,70,6.1C36.4,6.1,9,33.4,9,67s27.3,60.9,60.9,60.9c15.4,0,30.1-5.8,41.4-16.2l5.5-5.1
		L94.1,83.9z M70,120.8c-29.7,0-53.8-24.1-53.8-53.8S40.3,13.2,70,13.2c14,0,26.7,5.3,36.3,14.1L93.6,40C87.3,34.5,79,31.2,70,31.2
		c-19.8,0-35.8,16-35.8,35.8s16,35.8,35.8,35.8c9.2,0,17.5-3.4,23.8-9.1l12.7,12.7C96.9,115.3,84.1,120.8,70,120.8z"/>
</g>
</svg>
